<mxfile host="app.diagrams.net" modified="2024-04-30T12:40:06.355Z" agent="Mozilla/5.0 (Windows NT 10.0; Win64; x64) AppleWebKit/537.36 (KHTML, like Gecko) Chrome/123.0.0.0 Safari/537.36" version="24.2.5" etag="o980BI26WPIyhwT-MNkQ" type="github">
  <diagram name="Page-1" id="P7XKdXfvQUmHbG1xgLTd">
    <mxGraphModel>
      <root>
        <mxCell id="0" />
        <mxCell id="1" parent="0" />
      </root>
    </mxGraphModel>
  </diagram>
</mxfile>
